<svg xmlns="http://www.w3.org/2000/svg" xmlns:xlink="http://www.w3.org/1999/xlink" width="1024" zoomAndPan="magnify" viewBox="0 0 768 767.999994" height="1024" preserveAspectRatio="xMidYMid meet" version="1.0"><defs><clipPath id="5b1f632dfb"><path d="M 384 0 C 171.921875 0 0 171.921875 0 384 C 0 596.078125 171.921875 768 384 768 C 596.078125 768 768 596.078125 768 384 C 768 171.921875 596.078125 0 384 0 Z M 384 0 " clip-rule="nonzero"/></clipPath><linearGradient x1="-0" gradientTransform="matrix(3, 0, 0, 3, 0.000003, 0.00002)" y1="128" x2="255.999989" gradientUnits="userSpaceOnUse" y2="128" id="8f506ce79e"><stop stop-opacity="1" stop-color="rgb(0%, 0%, 0%)" offset="0"/><stop stop-opacity="1" stop-color="rgb(0.175476%, 0.175476%, 0.175476%)" offset="0.0078125"/><stop stop-opacity="1" stop-color="rgb(0.526428%, 0.526428%, 0.526428%)" offset="0.015625"/><stop stop-opacity="1" stop-color="rgb(0.878906%, 0.878906%, 0.878906%)" offset="0.0234375"/><stop stop-opacity="1" stop-color="rgb(1.231384%, 1.231384%, 1.231384%)" offset="0.03125"/><stop stop-opacity="1" stop-color="rgb(1.583862%, 1.583862%, 1.583862%)" offset="0.0390625"/><stop stop-opacity="1" stop-color="rgb(1.93634%, 1.93634%, 1.93634%)" offset="0.046875"/><stop stop-opacity="1" stop-color="rgb(2.288818%, 2.288818%, 2.288818%)" offset="0.0546875"/><stop stop-opacity="1" stop-color="rgb(2.641296%, 2.641296%, 2.641296%)" offset="0.0625"/><stop stop-opacity="1" stop-color="rgb(2.993774%, 2.993774%, 2.993774%)" offset="0.0703125"/><stop stop-opacity="1" stop-color="rgb(3.346252%, 3.346252%, 3.346252%)" offset="0.078125"/><stop stop-opacity="1" stop-color="rgb(3.69873%, 3.69873%, 3.69873%)" offset="0.0859375"/><stop stop-opacity="1" stop-color="rgb(4.051208%, 4.051208%, 4.051208%)" offset="0.09375"/><stop stop-opacity="1" stop-color="rgb(4.402161%, 4.402161%, 4.402161%)" offset="0.101562"/><stop stop-opacity="1" stop-color="rgb(4.754639%, 4.754639%, 4.754639%)" offset="0.109375"/><stop stop-opacity="1" stop-color="rgb(5.107117%, 5.107117%, 5.107117%)" offset="0.117188"/><stop stop-opacity="1" stop-color="rgb(5.459595%, 5.459595%, 5.459595%)" offset="0.125"/><stop stop-opacity="1" stop-color="rgb(5.812073%, 5.812073%, 5.812073%)" offset="0.132812"/><stop stop-opacity="1" stop-color="rgb(6.164551%, 6.164551%, 6.164551%)" offset="0.140625"/><stop stop-opacity="1" stop-color="rgb(6.517029%, 6.517029%, 6.517029%)" offset="0.148438"/><stop stop-opacity="1" stop-color="rgb(6.869507%, 6.869507%, 6.869507%)" offset="0.15625"/><stop stop-opacity="1" stop-color="rgb(7.221985%, 7.221985%, 7.221985%)" offset="0.164062"/><stop stop-opacity="1" stop-color="rgb(7.574463%, 7.574463%, 7.574463%)" offset="0.171875"/><stop stop-opacity="1" stop-color="rgb(7.926941%, 7.926941%, 7.926941%)" offset="0.179688"/><stop stop-opacity="1" stop-color="rgb(8.277893%, 8.277893%, 8.277893%)" offset="0.1875"/><stop stop-opacity="1" stop-color="rgb(8.630371%, 8.630371%, 8.630371%)" offset="0.195312"/><stop stop-opacity="1" stop-color="rgb(8.982849%, 8.982849%, 8.982849%)" offset="0.203125"/><stop stop-opacity="1" stop-color="rgb(9.335327%, 9.335327%, 9.335327%)" offset="0.210938"/><stop stop-opacity="1" stop-color="rgb(9.687805%, 9.687805%, 9.687805%)" offset="0.21875"/><stop stop-opacity="1" stop-color="rgb(10.040283%, 10.040283%, 10.040283%)" offset="0.226562"/><stop stop-opacity="1" stop-color="rgb(10.392761%, 10.392761%, 10.392761%)" offset="0.234375"/><stop stop-opacity="1" stop-color="rgb(10.745239%, 10.745239%, 10.745239%)" offset="0.242188"/><stop stop-opacity="1" stop-color="rgb(11.097717%, 11.097717%, 11.097717%)" offset="0.25"/><stop stop-opacity="1" stop-color="rgb(11.450195%, 11.450195%, 11.450195%)" offset="0.257812"/><stop stop-opacity="1" stop-color="rgb(11.802673%, 11.802673%, 11.802673%)" offset="0.265625"/><stop stop-opacity="1" stop-color="rgb(12.155151%, 12.155151%, 12.155151%)" offset="0.273438"/><stop stop-opacity="1" stop-color="rgb(12.506104%, 12.506104%, 12.506104%)" offset="0.28125"/><stop stop-opacity="1" stop-color="rgb(12.858582%, 12.858582%, 12.858582%)" offset="0.289062"/><stop stop-opacity="1" stop-color="rgb(13.21106%, 13.21106%, 13.21106%)" offset="0.296875"/><stop stop-opacity="1" stop-color="rgb(13.563538%, 13.563538%, 13.563538%)" offset="0.304688"/><stop stop-opacity="1" stop-color="rgb(13.916016%, 13.916016%, 13.916016%)" offset="0.3125"/><stop stop-opacity="1" stop-color="rgb(14.268494%, 14.268494%, 14.268494%)" offset="0.320312"/><stop stop-opacity="1" stop-color="rgb(14.620972%, 14.620972%, 14.620972%)" offset="0.328125"/><stop stop-opacity="1" stop-color="rgb(14.97345%, 14.97345%, 14.97345%)" offset="0.335938"/><stop stop-opacity="1" stop-color="rgb(15.325928%, 15.325928%, 15.325928%)" offset="0.34375"/><stop stop-opacity="1" stop-color="rgb(15.678406%, 15.678406%, 15.678406%)" offset="0.351562"/><stop stop-opacity="1" stop-color="rgb(16.030884%, 16.030884%, 16.030884%)" offset="0.359375"/><stop stop-opacity="1" stop-color="rgb(16.381836%, 16.381836%, 16.381836%)" offset="0.367188"/><stop stop-opacity="1" stop-color="rgb(16.734314%, 16.734314%, 16.734314%)" offset="0.375"/><stop stop-opacity="1" stop-color="rgb(17.086792%, 17.086792%, 17.086792%)" offset="0.382812"/><stop stop-opacity="1" stop-color="rgb(17.43927%, 17.43927%, 17.43927%)" offset="0.390625"/><stop stop-opacity="1" stop-color="rgb(17.791748%, 17.791748%, 17.791748%)" offset="0.398438"/><stop stop-opacity="1" stop-color="rgb(18.144226%, 18.144226%, 18.144226%)" offset="0.40625"/><stop stop-opacity="1" stop-color="rgb(18.496704%, 18.496704%, 18.496704%)" offset="0.414062"/><stop stop-opacity="1" stop-color="rgb(18.849182%, 18.849182%, 18.849182%)" offset="0.421875"/><stop stop-opacity="1" stop-color="rgb(19.20166%, 19.20166%, 19.20166%)" offset="0.429688"/><stop stop-opacity="1" stop-color="rgb(19.554138%, 19.554138%, 19.554138%)" offset="0.4375"/><stop stop-opacity="1" stop-color="rgb(19.906616%, 19.906616%, 19.906616%)" offset="0.445312"/><stop stop-opacity="1" stop-color="rgb(20.257568%, 20.257568%, 20.257568%)" offset="0.453125"/><stop stop-opacity="1" stop-color="rgb(20.610046%, 20.610046%, 20.610046%)" offset="0.460938"/><stop stop-opacity="1" stop-color="rgb(20.962524%, 20.962524%, 20.962524%)" offset="0.46875"/><stop stop-opacity="1" stop-color="rgb(21.315002%, 21.315002%, 21.315002%)" offset="0.476562"/><stop stop-opacity="1" stop-color="rgb(21.66748%, 21.66748%, 21.66748%)" offset="0.484375"/><stop stop-opacity="1" stop-color="rgb(22.019958%, 22.019958%, 22.019958%)" offset="0.492188"/><stop stop-opacity="1" stop-color="rgb(22.372437%, 22.372437%, 22.372437%)" offset="0.5"/><stop stop-opacity="1" stop-color="rgb(22.724915%, 22.724915%, 22.724915%)" offset="0.507812"/><stop stop-opacity="1" stop-color="rgb(23.077393%, 23.077393%, 23.077393%)" offset="0.515625"/><stop stop-opacity="1" stop-color="rgb(23.429871%, 23.429871%, 23.429871%)" offset="0.523438"/><stop stop-opacity="1" stop-color="rgb(23.782349%, 23.782349%, 23.782349%)" offset="0.53125"/><stop stop-opacity="1" stop-color="rgb(24.134827%, 24.134827%, 24.134827%)" offset="0.539062"/><stop stop-opacity="1" stop-color="rgb(24.485779%, 24.485779%, 24.485779%)" offset="0.546875"/><stop stop-opacity="1" stop-color="rgb(24.838257%, 24.838257%, 24.838257%)" offset="0.554688"/><stop stop-opacity="1" stop-color="rgb(25.190735%, 25.190735%, 25.190735%)" offset="0.5625"/><stop stop-opacity="1" stop-color="rgb(25.543213%, 25.543213%, 25.543213%)" offset="0.570312"/><stop stop-opacity="1" stop-color="rgb(25.895691%, 25.895691%, 25.895691%)" offset="0.578125"/><stop stop-opacity="1" stop-color="rgb(26.248169%, 26.248169%, 26.248169%)" offset="0.585938"/><stop stop-opacity="1" stop-color="rgb(26.600647%, 26.600647%, 26.600647%)" offset="0.59375"/><stop stop-opacity="1" stop-color="rgb(26.953125%, 26.953125%, 26.953125%)" offset="0.601562"/><stop stop-opacity="1" stop-color="rgb(27.305603%, 27.305603%, 27.305603%)" offset="0.609375"/><stop stop-opacity="1" stop-color="rgb(27.658081%, 27.658081%, 27.658081%)" offset="0.617188"/><stop stop-opacity="1" stop-color="rgb(28.010559%, 28.010559%, 28.010559%)" offset="0.625"/><stop stop-opacity="1" stop-color="rgb(28.361511%, 28.361511%, 28.361511%)" offset="0.632812"/><stop stop-opacity="1" stop-color="rgb(28.713989%, 28.713989%, 28.713989%)" offset="0.640625"/><stop stop-opacity="1" stop-color="rgb(29.066467%, 29.066467%, 29.066467%)" offset="0.648438"/><stop stop-opacity="1" stop-color="rgb(29.418945%, 29.418945%, 29.418945%)" offset="0.65625"/><stop stop-opacity="1" stop-color="rgb(29.771423%, 29.771423%, 29.771423%)" offset="0.664062"/><stop stop-opacity="1" stop-color="rgb(30.123901%, 30.123901%, 30.123901%)" offset="0.671875"/><stop stop-opacity="1" stop-color="rgb(30.476379%, 30.476379%, 30.476379%)" offset="0.679688"/><stop stop-opacity="1" stop-color="rgb(30.828857%, 30.828857%, 30.828857%)" offset="0.6875"/><stop stop-opacity="1" stop-color="rgb(31.181335%, 31.181335%, 31.181335%)" offset="0.695312"/><stop stop-opacity="1" stop-color="rgb(31.533813%, 31.533813%, 31.533813%)" offset="0.703125"/><stop stop-opacity="1" stop-color="rgb(31.886292%, 31.886292%, 31.886292%)" offset="0.710938"/><stop stop-opacity="1" stop-color="rgb(32.237244%, 32.237244%, 32.237244%)" offset="0.71875"/><stop stop-opacity="1" stop-color="rgb(32.589722%, 32.589722%, 32.589722%)" offset="0.726562"/><stop stop-opacity="1" stop-color="rgb(32.9422%, 32.9422%, 32.9422%)" offset="0.734375"/><stop stop-opacity="1" stop-color="rgb(33.294678%, 33.294678%, 33.294678%)" offset="0.742188"/><stop stop-opacity="1" stop-color="rgb(33.647156%, 33.647156%, 33.647156%)" offset="0.75"/><stop stop-opacity="1" stop-color="rgb(33.999634%, 33.999634%, 33.999634%)" offset="0.757812"/><stop stop-opacity="1" stop-color="rgb(34.352112%, 34.352112%, 34.352112%)" offset="0.765625"/><stop stop-opacity="1" stop-color="rgb(34.70459%, 34.70459%, 34.70459%)" offset="0.773438"/><stop stop-opacity="1" stop-color="rgb(35.057068%, 35.057068%, 35.057068%)" offset="0.78125"/><stop stop-opacity="1" stop-color="rgb(35.409546%, 35.409546%, 35.409546%)" offset="0.789062"/><stop stop-opacity="1" stop-color="rgb(35.762024%, 35.762024%, 35.762024%)" offset="0.796875"/><stop stop-opacity="1" stop-color="rgb(36.114502%, 36.114502%, 36.114502%)" offset="0.804688"/><stop stop-opacity="1" stop-color="rgb(36.465454%, 36.465454%, 36.465454%)" offset="0.8125"/><stop stop-opacity="1" stop-color="rgb(36.817932%, 36.817932%, 36.817932%)" offset="0.820312"/><stop stop-opacity="1" stop-color="rgb(37.17041%, 37.17041%, 37.17041%)" offset="0.828125"/><stop stop-opacity="1" stop-color="rgb(37.522888%, 37.522888%, 37.522888%)" offset="0.835938"/><stop stop-opacity="1" stop-color="rgb(37.875366%, 37.875366%, 37.875366%)" offset="0.84375"/><stop stop-opacity="1" stop-color="rgb(38.227844%, 38.227844%, 38.227844%)" offset="0.851562"/><stop stop-opacity="1" stop-color="rgb(38.580322%, 38.580322%, 38.580322%)" offset="0.859375"/><stop stop-opacity="1" stop-color="rgb(38.9328%, 38.9328%, 38.9328%)" offset="0.867188"/><stop stop-opacity="1" stop-color="rgb(39.285278%, 39.285278%, 39.285278%)" offset="0.875"/><stop stop-opacity="1" stop-color="rgb(39.637756%, 39.637756%, 39.637756%)" offset="0.882812"/><stop stop-opacity="1" stop-color="rgb(39.990234%, 39.990234%, 39.990234%)" offset="0.890625"/><stop stop-opacity="1" stop-color="rgb(40.341187%, 40.341187%, 40.341187%)" offset="0.898438"/><stop stop-opacity="1" stop-color="rgb(40.693665%, 40.693665%, 40.693665%)" offset="0.90625"/><stop stop-opacity="1" stop-color="rgb(41.046143%, 41.046143%, 41.046143%)" offset="0.914062"/><stop stop-opacity="1" stop-color="rgb(41.398621%, 41.398621%, 41.398621%)" offset="0.921875"/><stop stop-opacity="1" stop-color="rgb(41.751099%, 41.751099%, 41.751099%)" offset="0.929688"/><stop stop-opacity="1" stop-color="rgb(42.103577%, 42.103577%, 42.103577%)" offset="0.9375"/><stop stop-opacity="1" stop-color="rgb(42.456055%, 42.456055%, 42.456055%)" offset="0.945312"/><stop stop-opacity="1" stop-color="rgb(42.808533%, 42.808533%, 42.808533%)" offset="0.953125"/><stop stop-opacity="1" stop-color="rgb(43.161011%, 43.161011%, 43.161011%)" offset="0.960938"/><stop stop-opacity="1" stop-color="rgb(43.513489%, 43.513489%, 43.513489%)" offset="0.96875"/><stop stop-opacity="1" stop-color="rgb(43.865967%, 43.865967%, 43.865967%)" offset="0.976562"/><stop stop-opacity="1" stop-color="rgb(44.216919%, 44.216919%, 44.216919%)" offset="0.984375"/><stop stop-opacity="1" stop-color="rgb(44.569397%, 44.569397%, 44.569397%)" offset="0.992188"/><stop stop-opacity="1" stop-color="rgb(44.921875%, 44.921875%, 44.921875%)" offset="1"/></linearGradient><clipPath id="cacfbe6909"><path d="M 521 581 L 543 581 L 543 603 L 521 603 Z M 521 581 " clip-rule="nonzero"/></clipPath><clipPath id="7c49467858"><path d="M 519.984375 583.105469 L 540.800781 580.351562 L 543.554688 601.167969 L 522.734375 603.921875 Z M 519.984375 583.105469 " clip-rule="nonzero"/></clipPath><clipPath id="0ce308830c"><path d="M 519.984375 583.105469 L 540.800781 580.351562 L 543.554688 601.167969 L 522.734375 603.921875 Z M 519.984375 583.105469 " clip-rule="nonzero"/></clipPath><clipPath id="3d253d5d5b"><path d="M 427 410 L 449 410 L 449 432 L 427 432 Z M 427 410 " clip-rule="nonzero"/></clipPath><clipPath id="1237f6cbec"><path d="M 426.027344 411.773438 L 446.84375 409.019531 L 449.597656 429.839844 L 428.777344 432.59375 Z M 426.027344 411.773438 " clip-rule="nonzero"/></clipPath><clipPath id="c6cec797db"><path d="M 426.027344 411.773438 L 446.84375 409.019531 L 449.597656 429.839844 L 428.777344 432.59375 Z M 426.027344 411.773438 " clip-rule="nonzero"/></clipPath><clipPath id="06c010fd60"><path d="M 356 615 L 378 615 L 378 637 L 356 637 Z M 356 615 " clip-rule="nonzero"/></clipPath><clipPath id="bfd9427737"><path d="M 355.378906 617.222656 L 376.195312 614.472656 L 378.949219 635.289062 L 358.128906 638.042969 Z M 355.378906 617.222656 " clip-rule="nonzero"/></clipPath><clipPath id="a1fc2570de"><path d="M 355.378906 617.222656 L 376.195312 614.472656 L 378.949219 635.289062 L 358.128906 638.042969 Z M 355.378906 617.222656 " clip-rule="nonzero"/></clipPath><clipPath id="07827c06c0"><path d="M 140 439 L 161 439 L 161 461 L 140 461 Z M 140 439 " clip-rule="nonzero"/></clipPath><clipPath id="856a4443ac"><path d="M 138.878906 440.96875 L 159.695312 438.21875 L 162.449219 459.035156 L 141.628906 461.789062 Z M 138.878906 440.96875 " clip-rule="nonzero"/></clipPath><clipPath id="96fd3bfb19"><path d="M 138.878906 440.96875 L 159.695312 438.21875 L 162.449219 459.035156 L 141.628906 461.789062 Z M 138.878906 440.96875 " clip-rule="nonzero"/></clipPath><clipPath id="ee23de6b47"><path d="M 322 371 L 344 371 L 344 393 L 322 393 Z M 322 371 " clip-rule="nonzero"/></clipPath><clipPath id="b2b6c25109"><path d="M 321.113281 373.164062 L 341.933594 370.410156 L 344.6875 391.230469 L 323.867188 393.984375 Z M 321.113281 373.164062 " clip-rule="nonzero"/></clipPath><clipPath id="158cd0950c"><path d="M 321.113281 373.164062 L 341.933594 370.410156 L 344.6875 391.230469 L 323.867188 393.984375 Z M 321.113281 373.164062 " clip-rule="nonzero"/></clipPath><clipPath id="d2939fb77c"><path d="M 238 575 L 260 575 L 260 597 L 238 597 Z M 238 575 " clip-rule="nonzero"/></clipPath><clipPath id="1e6756b40f"><path d="M 237.371094 577.242188 L 258.1875 574.488281 L 260.941406 595.308594 L 240.125 598.058594 Z M 237.371094 577.242188 " clip-rule="nonzero"/></clipPath><clipPath id="21c7c5978e"><path d="M 237.371094 577.242188 L 258.1875 574.488281 L 260.941406 595.308594 L 240.125 598.058594 Z M 237.371094 577.242188 " clip-rule="nonzero"/></clipPath><clipPath id="05e19122ee"><path d="M 316 157 L 326 157 L 326 167 L 316 167 Z M 316 157 " clip-rule="nonzero"/></clipPath><clipPath id="d21950b4d9"><path d="M 316.3125 158.429688 L 325.234375 157.25 L 326.414062 166.171875 L 317.492188 167.351562 Z M 316.3125 158.429688 " clip-rule="nonzero"/></clipPath><clipPath id="8b01835050"><path d="M 316.3125 158.429688 L 325.234375 157.25 L 326.414062 166.171875 L 317.492188 167.351562 Z M 316.3125 158.429688 " clip-rule="nonzero"/></clipPath><clipPath id="422f516893"><path d="M 607 237 L 617 237 L 617 247 L 607 247 Z M 607 237 " clip-rule="nonzero"/></clipPath><clipPath id="4333ffd5b2"><path d="M 607.199219 238.066406 L 616.121094 236.886719 L 617.300781 245.808594 L 608.378906 246.988281 Z M 607.199219 238.066406 " clip-rule="nonzero"/></clipPath><clipPath id="921bacb1d6"><path d="M 607.199219 238.066406 L 616.121094 236.886719 L 617.300781 245.808594 L 608.378906 246.988281 Z M 607.199219 238.066406 " clip-rule="nonzero"/></clipPath><clipPath id="0459ce37c6"><path d="M 378 390 L 396 390 L 396 408 L 378 408 Z M 378 390 " clip-rule="nonzero"/></clipPath><clipPath id="a6160ac860"><path d="M 377.003906 391.808594 L 394.105469 389.546875 L 396.367188 406.648438 L 379.265625 408.90625 Z M 377.003906 391.808594 " clip-rule="nonzero"/></clipPath><clipPath id="f3e24ffe0c"><path d="M 377.003906 391.808594 L 394.105469 389.546875 L 396.367188 406.648438 L 379.265625 408.90625 Z M 377.003906 391.808594 " clip-rule="nonzero"/></clipPath></defs><g clip-path="url(#5b1f632dfb)"><rect x="-76.8" fill="url(#8f506ce79e)" width="921.6" y="-76.799999" height="921.599993"/></g><path stroke-linecap="butt" transform="matrix(0.608734, -0.438112, 0.438112, 0.608734, 365.784331, 373.142697)" fill="none" stroke-linejoin="miter" d="M 1.695283 49.876842 C 200.273687 -8.62754 322.669305 -8.624351 368.888223 49.877952 " stroke="#ffd700" stroke-width="12" stroke-opacity="1" stroke-miterlimit="4"/><path stroke-linecap="butt" transform="matrix(-0.18609, -0.726547, 0.726547, -0.18609, 378.800463, 403.802568)" fill="none" stroke-linejoin="miter" d="M 1.251836 5.869575 C 165.701489 40.925276 275.612378 40.925531 330.990842 5.866587 " stroke="#ffd700" stroke-width="12" stroke-opacity="1" stroke-miterlimit="4"/><path stroke-linecap="butt" transform="matrix(0.247745, -0.7079, 0.7079, 0.247745, 318.24904, 582.181983)" fill="none" stroke-linejoin="miter" d="M 9.000787 6.000313 L 207.987772 5.998647 " stroke="#ffd700" stroke-width="12" stroke-opacity="1" stroke-miterlimit="4"/><path stroke-linecap="round" transform="matrix(0.247745, -0.7079, 0.7079, 0.247745, 318.24904, 582.181983)" fill="none" stroke-linejoin="round" d="M 6.001537 -11.998453 L 6.002604 24.001142 " stroke="#ffd700" stroke-width="12" stroke-opacity="1" stroke-miterlimit="4"/><path stroke-linecap="round" transform="matrix(0.247745, -0.7079, 0.7079, 0.247745, 318.24904, 582.181983)" fill="none" stroke-linejoin="round" d="M 210.985955 -12.002182 L 210.987023 23.997414 " stroke="#ffd700" stroke-width="12" stroke-opacity="1" stroke-miterlimit="4"/><path stroke-linecap="butt" transform="matrix(-0.361322, -0.657227, 0.657227, -0.361322, 535.380505, 601.708574)" fill="none" stroke-linejoin="miter" d="M 13.316917 2.225163 C 100.199017 522.311096 187.087461 522.311318 273.970614 2.225374 " stroke="#ffd700" stroke-width="27" stroke-opacity="1" stroke-miterlimit="4"/><path stroke-linecap="butt" transform="matrix(0.736306, -0.142665, 0.142665, 0.736306, 356.067086, 621.006661)" fill="none" stroke-linejoin="miter" d="M 11.623407 6.869215 C 132.021002 210.600512 207.365685 210.599243 237.651352 6.86953 " stroke="#ffd700" stroke-width="27" stroke-opacity="1" stroke-miterlimit="4"/><g clip-path="url(#cacfbe6909)"><g clip-path="url(#7c49467858)"><g clip-path="url(#0ce308830c)"><path fill="#ffd700" d="M 530.4375 581.722656 C 536.214844 580.957031 541.515625 585.019531 542.277344 590.792969 C 543.042969 596.570312 538.980469 601.867188 533.203125 602.632812 C 527.429688 603.394531 522.128906 599.332031 521.367188 593.558594 C 520.601562 587.785156 524.664062 582.484375 530.4375 581.722656 Z M 530.4375 581.722656 " fill-opacity="1" fill-rule="evenodd"/></g></g></g><g clip-path="url(#3d253d5d5b)"><g clip-path="url(#1237f6cbec)"><g clip-path="url(#c6cec797db)"><path fill="#ffd700" d="M 436.480469 410.390625 C 442.257812 409.628906 447.558594 413.6875 448.320312 419.464844 C 449.082031 425.238281 445.023438 430.539062 439.246094 431.300781 C 433.472656 432.066406 428.171875 428.003906 427.410156 422.230469 C 426.644531 416.453125 430.707031 411.152344 436.480469 410.390625 Z M 436.480469 410.390625 " fill-opacity="1" fill-rule="evenodd"/></g></g></g><g clip-path="url(#06c010fd60)"><g clip-path="url(#bfd9427737)"><g clip-path="url(#a1fc2570de)"><path fill="#ffd700" d="M 365.832031 615.84375 C 371.609375 615.078125 376.910156 619.140625 377.671875 624.914062 C 378.4375 630.691406 374.375 635.988281 368.597656 636.753906 C 362.824219 637.515625 357.523438 633.453125 356.761719 627.679688 C 355.996094 621.90625 360.058594 616.605469 365.832031 615.84375 Z M 365.832031 615.84375 " fill-opacity="1" fill-rule="evenodd"/></g></g></g><path stroke-linecap="butt" transform="matrix(0.702379, -0.262989, 0.262989, 0.702379, 34.273745, 167.82634)" fill="none" stroke-linejoin="miter" d="M 13.318141 406.626248 C 99.852542 -117.54104 186.383754 -117.542529 272.916657 406.623606 " stroke="#ffd700" stroke-width="27" stroke-opacity="1" stroke-miterlimit="4"/><path stroke-linecap="butt" transform="matrix(-0.439536, -0.607707, 0.607707, -0.439536, 147.044043, 671.104547)" fill="none" stroke-linejoin="miter" d="M 11.773696 176.634183 C 133.81893 -40.87987 208.629208 -40.875088 236.202195 176.633985 " stroke="#ffd700" stroke-width="27" stroke-opacity="1" stroke-miterlimit="4"/><g clip-path="url(#07827c06c0)"><g clip-path="url(#856a4443ac)"><g clip-path="url(#96fd3bfb19)"><path fill="#ffd700" d="M 149.199219 439.605469 C 154.898438 438.851562 160.132812 442.863281 160.886719 448.5625 C 161.640625 454.261719 157.628906 459.496094 151.929688 460.25 C 146.226562 461.003906 140.996094 456.992188 140.242188 451.292969 C 139.488281 445.589844 143.5 440.359375 149.199219 439.605469 Z M 149.199219 439.605469 " fill-opacity="1" fill-rule="evenodd"/></g></g></g><g clip-path="url(#ee23de6b47)"><g clip-path="url(#b2b6c25109)"><g clip-path="url(#158cd0950c)"><path fill="#ffd700" d="M 331.570312 371.78125 C 337.34375 371.019531 342.644531 375.082031 343.410156 380.855469 C 344.171875 386.628906 340.109375 391.929688 334.335938 392.695312 C 328.5625 393.457031 323.261719 389.394531 322.496094 383.621094 C 321.734375 377.847656 325.796875 372.546875 331.570312 371.78125 Z M 331.570312 371.78125 " fill-opacity="1" fill-rule="evenodd"/></g></g></g><g clip-path="url(#d2939fb77c)"><g clip-path="url(#1e6756b40f)"><g clip-path="url(#21c7c5978e)"><path fill="#ffd700" d="M 247.828125 575.859375 C 253.601562 575.09375 258.902344 579.15625 259.664062 584.933594 C 260.429688 590.707031 256.367188 596.007812 250.589844 596.769531 C 244.816406 597.535156 239.515625 593.472656 238.753906 587.699219 C 237.988281 581.921875 242.050781 576.621094 247.828125 575.859375 Z M 247.828125 575.859375 " fill-opacity="1" fill-rule="evenodd"/></g></g></g><g clip-path="url(#05e19122ee)"><g clip-path="url(#d21950b4d9)"><g clip-path="url(#8b01835050)"><path fill="#ffd700" d="M 320.714844 157.84375 C 323.144531 157.523438 325.378906 159.234375 325.699219 161.667969 C 326.019531 164.097656 324.308594 166.332031 321.878906 166.652344 C 319.445312 166.972656 317.214844 165.261719 316.894531 162.832031 C 316.570312 160.398438 318.28125 158.167969 320.714844 157.84375 Z M 320.714844 157.84375 " fill-opacity="1" fill-rule="evenodd"/></g></g></g><g clip-path="url(#422f516893)"><g clip-path="url(#4333ffd5b2)"><g clip-path="url(#921bacb1d6)"><path fill="#ffd700" d="M 611.601562 237.484375 C 614.035156 237.160156 616.265625 238.871094 616.585938 241.304688 C 616.910156 243.734375 615.199219 245.96875 612.765625 246.289062 C 610.335938 246.609375 608.101562 244.898438 607.78125 242.46875 C 607.460938 240.035156 609.167969 237.804688 611.601562 237.484375 Z M 611.601562 237.484375 " fill-opacity="1" fill-rule="evenodd"/></g></g></g><path stroke-linecap="butt" transform="matrix(0.7043, 0.257801, -0.257801, 0.7043, 379.863179, 349.979182)" fill="none" stroke-linejoin="miter" d="M -0.000808308 5.997659 L 54.930962 6.001339 " stroke="#ffd700" stroke-width="12" stroke-opacity="1" stroke-miterlimit="4"/><g clip-path="url(#0459ce37c6)"><g clip-path="url(#a6160ac860)"><g clip-path="url(#f3e24ffe0c)"><path fill="#ffd700" d="M 385.601562 390.671875 C 390.347656 390.042969 394.707031 393.382812 395.335938 398.128906 C 395.964844 402.878906 392.621094 407.238281 387.875 407.863281 C 383.125 408.492188 378.769531 405.152344 378.140625 400.402344 C 377.511719 395.65625 380.851562 391.296875 385.601562 390.671875 Z M 385.601562 390.671875 " fill-opacity="1" fill-rule="evenodd"/></g></g></g></svg>