<svg width="457" height="86" viewBox="0 0 457 86" fill="none" xmlns="http://www.w3.org/2000/svg">
<path d="M20.2047 28.4183C24.7406 28.4183 28.4095 32.0959 28.4095 36.623C28.4095 41.1501 32.0872 44.8278 36.6142 44.8278C41.1413 44.8278 44.819 41.1501 44.819 36.623C44.819 32.0959 41.1413 28.4183 36.6142 28.4183C32.0872 28.4183 28.4095 24.7406 28.4095 20.2135C28.4183 15.6777 24.7406 12 20.2047 12C15.6689 12 12 15.6777 12 20.2047C12 24.7318 15.6777 28.4095 20.2047 28.4095M20.2047 44.8365C15.6689 44.8365 12 48.5142 12 53.0413C12 57.5683 15.6777 61.246 20.2047 61.246C24.7318 61.246 28.4095 57.5683 28.4095 53.0413C28.4095 48.5142 24.7318 44.8365 20.2047 44.8365ZM61.2548 20.2047C61.2548 15.6689 57.5771 12 53.05 12C48.523 12 44.8453 15.6777 44.8453 20.2047C44.8453 24.7318 48.523 28.4095 53.05 28.4095C57.5771 28.4095 61.2548 32.0872 61.2548 36.6142V53.0325C61.2548 57.5683 64.9325 61.2372 69.4595 61.2372C73.9866 61.2372 77.6643 57.5596 77.6643 53.0325V36.6142C77.6643 32.0784 73.9866 28.4095 69.4595 28.4095C64.9325 28.4095 61.2548 24.7318 61.2548 20.2047ZM99.2313 60.1427C98.916 59.8537 98.7672 59.4597 98.7672 58.9693V15.415C98.7672 14.9246 98.9248 14.5218 99.2313 14.2066C99.5465 13.8914 99.9405 13.7338 100.44 13.7338H105.729C106.665 13.7338 107.331 14.1541 107.734 15.0034L120.649 39.0923L133.696 15.0034C134.143 14.1541 134.809 13.7338 135.702 13.7338H140.921C141.411 13.7338 141.814 13.8914 142.129 14.2066C142.444 14.5218 142.602 14.9159 142.602 15.415V58.9781C142.602 59.4685 142.444 59.8625 142.129 60.1515C141.814 60.4404 141.411 60.5893 140.921 60.5893H135.299C134.852 60.5893 134.476 60.4317 134.161 60.1164C133.845 59.8012 133.696 59.4247 133.696 58.9781V30.0032L124.327 47.8662C123.749 48.8469 122.987 49.3373 122.05 49.3373H119.31C118.373 49.3373 117.611 48.8469 117.033 47.8662L107.664 30.0032V58.9781C107.664 59.4247 107.515 59.8012 107.226 60.1164C106.937 60.4317 106.543 60.5893 106.053 60.5893H100.431C99.9405 60.5893 99.5378 60.4492 99.2225 60.1515L99.2313 60.1427ZM153.679 57.2005C150.824 54.5036 149.283 50.8084 149.064 46.1237L148.994 43.1815L149.064 40.2394C149.283 35.5985 150.85 31.9208 153.749 29.1976C156.647 26.4743 160.666 25.1171 165.797 25.1171C170.929 25.1171 174.939 26.4831 177.846 29.1976C180.745 31.9208 182.303 35.5985 182.531 40.2394C182.575 40.7735 182.601 41.7543 182.601 43.1815C182.601 44.6088 182.575 45.5896 182.531 46.1237C182.303 50.8084 180.771 54.5036 177.916 57.2005C175.062 59.8975 171.025 61.246 165.806 61.246C160.587 61.246 156.551 59.8975 153.696 57.2005H153.679ZM171.279 52.3845C172.575 50.8959 173.284 48.6981 173.424 45.791C173.468 45.3444 173.494 44.4775 173.494 43.1815C173.494 41.8856 173.468 41.0187 173.424 40.5721C173.293 37.6738 172.575 35.4759 171.279 33.9786C169.983 32.49 168.153 31.7369 165.789 31.7369C163.424 31.7369 161.594 32.4812 160.298 33.9786C159.002 35.4759 158.293 37.6738 158.153 40.5721L158.083 43.1815L158.153 45.791C158.284 48.6893 159.002 50.8872 160.298 52.3845C161.594 53.8819 163.424 54.6262 165.789 54.6262C168.153 54.6262 169.983 53.8819 171.279 52.3845ZM188.652 60.1164C188.336 59.8012 188.188 59.4247 188.188 58.9781V27.455C188.188 27.0085 188.345 26.6232 188.652 26.2817C188.967 25.9489 189.343 25.7826 189.79 25.7826H195.21C195.701 25.7826 196.103 25.9402 196.419 26.2467C196.734 26.5619 196.883 26.9647 196.883 27.455V30.1958C197.951 28.7685 199.299 27.674 200.928 26.9209C202.557 26.1591 204.422 25.7826 206.515 25.7826H209.255C209.746 25.7826 210.14 25.9227 210.429 26.2204C210.718 26.5094 210.867 26.9034 210.867 27.3938V32.2098C210.867 32.6564 210.718 33.0329 210.429 33.3481C210.14 33.6633 209.746 33.8122 209.255 33.8122H204.037C201.935 33.8122 200.289 34.4164 199.081 35.616C197.872 36.8156 197.277 38.4706 197.277 40.5634V58.9693C197.277 59.4159 197.119 59.7924 196.813 60.1077C196.497 60.4229 196.095 60.5805 195.604 60.5805H189.781C189.335 60.5805 188.958 60.4229 188.643 60.1077L188.652 60.1164ZM216.751 72.857C216.436 72.568 216.287 72.174 216.287 71.6836V27.3938C216.287 26.9034 216.444 26.5094 216.751 26.2204C217.066 25.9314 217.443 25.7826 217.889 25.7826H223.178C223.669 25.7826 224.063 25.9227 224.352 26.2204C224.64 26.5094 224.789 26.9034 224.789 27.3938V30.0732C227.285 26.772 230.858 25.1171 235.498 25.1171C240.139 25.1171 243.458 26.5356 245.875 29.3639C248.283 32.201 249.579 36.0188 249.754 40.8436C249.798 41.3777 249.824 42.157 249.824 43.1815C249.824 44.206 249.798 45.0554 249.754 45.5896C249.579 50.2742 248.283 54.057 245.875 56.9291C243.467 59.81 240.008 61.246 235.498 61.246C230.989 61.246 227.556 59.6611 225.192 56.4913V71.6836C225.192 72.174 225.043 72.568 224.754 72.857C224.465 73.146 224.071 73.2948 223.581 73.2948H217.889C217.443 73.2948 217.066 73.1547 216.751 72.857ZM240.708 45.1868C240.752 44.7402 240.779 44.0747 240.779 43.1815C240.779 42.2884 240.752 41.6229 240.708 41.1763C240.393 35.2482 237.828 32.2798 233.012 32.2798C230.42 32.2798 228.502 33.1029 227.259 34.7579C226.006 36.4041 225.315 38.4356 225.183 40.8436L225.113 43.3829L225.183 45.9924C225.271 48.2252 225.971 50.1341 227.294 51.7103C228.607 53.2952 230.516 54.0833 233.012 54.0833C237.828 54.0833 240.393 51.1148 240.708 45.1868ZM256.987 60.1164C256.671 59.8012 256.523 59.4247 256.523 58.9781V14.6795C256.523 14.1891 256.68 13.8038 256.987 13.5061C257.302 13.2171 257.678 13.0683 258.125 13.0683H264.079C264.57 13.0683 264.964 13.2171 265.253 13.5061C265.542 13.7951 265.69 14.1891 265.69 14.6795V29.9331C268.37 26.7195 271.978 25.1171 276.531 25.1171C280.638 25.1171 283.913 26.4656 286.364 29.1625C288.816 31.8595 290.042 35.5285 290.042 40.1693V58.9693C290.042 59.4159 289.893 59.7924 289.604 60.1077C289.315 60.4229 288.921 60.5805 288.431 60.5805H282.406C281.96 60.5805 281.583 60.4229 281.268 60.1077C280.953 59.7924 280.795 59.4159 280.795 58.9693V40.5634C280.795 37.9365 280.156 35.8875 278.886 34.4427C277.617 32.9979 275.778 32.2711 273.37 32.2711C270.962 32.2711 269.132 33.0066 267.748 34.4777C266.365 35.9488 265.673 37.9802 265.673 40.5634V58.9693C265.673 59.4159 265.524 59.7924 265.235 60.1077C264.946 60.4229 264.552 60.5805 264.062 60.5805H258.107C257.661 60.5805 257.284 60.4229 256.969 60.1077L256.987 60.1164ZM298.965 60.1427C298.65 59.8537 298.501 59.4597 298.501 58.9693V15.415C298.501 14.9246 298.658 14.5218 298.965 14.2066C299.28 13.8914 299.674 13.7338 300.173 13.7338H305.462C306.399 13.7338 307.064 14.1541 307.467 15.0034L320.383 39.0923L333.43 15.0034C333.877 14.1541 334.542 13.7338 335.435 13.7338H340.654C341.144 13.7338 341.547 13.8914 341.862 14.2066C342.178 14.5218 342.335 14.9159 342.335 15.415V58.9781C342.335 59.4685 342.178 59.8625 341.862 60.1515C341.547 60.4404 341.144 60.5893 340.654 60.5893H335.032C334.586 60.5893 334.209 60.4317 333.894 60.1164C333.579 59.8012 333.43 59.4247 333.43 58.9781V30.0032L324.061 47.8662C323.483 48.8469 322.721 49.3373 321.784 49.3373H319.043C318.106 49.3373 317.344 48.8469 316.767 47.8662L307.397 30.0032V58.9781C307.397 59.4247 307.248 59.8012 306.959 60.1164C306.67 60.4317 306.276 60.5893 305.786 60.5893H300.164C299.674 60.5893 299.271 60.4492 298.956 60.1515L298.965 60.1427ZM352.3 19.5655C351.985 19.2503 351.827 18.8738 351.827 18.4272V13.6024C351.827 13.1558 351.985 12.7793 352.3 12.4641C352.607 12.1576 352.992 12 353.43 12H359.515C359.962 12 360.356 12.1576 360.689 12.4728C361.021 12.7881 361.188 13.1646 361.188 13.6112V18.4272C361.188 18.8738 361.03 19.2503 360.724 19.5655C360.408 19.8808 360.006 20.0384 359.515 20.0384H353.43C352.983 20.0384 352.607 19.8808 352.291 19.5655H352.3ZM352.563 60.1164C352.248 59.8012 352.099 59.4247 352.099 58.9781V27.3938C352.099 26.9472 352.256 26.5707 352.563 26.2554C352.878 25.9402 353.255 25.7913 353.701 25.7913H359.253C359.743 25.7913 360.137 25.9314 360.426 26.2292C360.715 26.5181 360.864 26.9122 360.864 27.4025V58.9869C360.864 59.4334 360.715 59.81 360.426 60.1252C360.137 60.4404 359.743 60.598 359.253 60.598H353.701C353.255 60.598 352.878 60.4404 352.563 60.1252V60.1164ZM371.345 60.1164C371.03 59.8012 370.881 59.4247 370.881 58.9781V27.3938C370.881 26.9472 371.039 26.5707 371.345 26.2554C371.66 25.9402 372.037 25.7913 372.484 25.7913H377.974C378.42 25.7913 378.797 25.9489 379.112 26.2554C379.427 26.5707 379.576 26.9472 379.576 27.3938V30.1345C382.212 26.7896 385.933 25.1171 390.749 25.1171C394.856 25.1171 398.114 26.4656 400.522 29.1625C402.93 31.8595 404.138 35.5285 404.138 40.1693V58.9693C404.138 59.4159 403.989 59.7924 403.7 60.1077C403.411 60.4229 403.017 60.5805 402.527 60.5805H396.642C396.196 60.5805 395.819 60.4229 395.504 60.1077C395.189 59.7924 395.031 59.4159 395.031 58.9693V40.5634C395.031 37.9365 394.392 35.8875 393.122 34.4427C391.853 32.9979 390.014 32.2711 387.606 32.2711C385.198 32.2711 383.377 33.0066 382.019 34.4777C380.662 35.9488 379.979 37.9802 379.979 40.5634V58.9693C379.979 59.4159 379.83 59.7924 379.541 60.1077C379.252 60.4229 378.858 60.5805 378.368 60.5805H372.484C372.037 60.5805 371.66 60.4229 371.345 60.1077V60.1164ZM415.311 56.9028C412.903 54.0045 411.607 50.1429 411.432 45.3269L411.362 43.1203L411.432 40.9749C411.563 36.2903 412.851 32.4812 415.276 29.5303C417.71 26.5882 421.178 25.1171 425.679 25.1171C430.179 25.1171 433.437 26.5882 435.985 29.5303V14.6795C435.985 14.1891 436.143 13.8038 436.449 13.5061C436.764 13.2171 437.141 13.0683 437.587 13.0683H443.279C443.769 13.0683 444.163 13.2171 444.452 13.5061C444.741 13.7951 444.89 14.1891 444.89 14.6795V58.9781C444.89 59.4247 444.741 59.8012 444.452 60.1164C444.163 60.4317 443.769 60.5893 443.279 60.5893H437.99C437.544 60.5893 437.167 60.4317 436.852 60.1164C436.537 59.8012 436.388 59.4247 436.388 58.9781V56.5C433.848 59.6699 430.276 61.2548 425.679 61.2548C421.082 61.2548 417.719 59.8012 415.302 56.9028H415.311ZM433.91 51.614C435.162 49.9678 435.854 47.9363 435.985 45.5283C436.029 44.9941 436.055 44.1272 436.055 42.9189C436.055 41.7105 436.029 40.9136 435.985 40.3795C435.897 38.1466 435.188 36.2377 433.875 34.6616C432.561 33.0767 430.652 32.2886 428.157 32.2886C423.341 32.2886 420.775 35.257 420.46 41.1851L420.39 43.1903L420.46 45.1955C420.775 51.1236 423.341 54.092 428.157 54.092C430.74 54.092 432.666 53.2689 433.91 51.614Z" fill="#124442"/>
</svg>
