<svg width="16" height="16" viewBox="0 0 16 16" fill="none" xmlns="http://www.w3.org/2000/svg">
<path d="M5.5 14.5H10.5" stroke="#0F172A" stroke-width="1.33" stroke-linecap="round" stroke-linejoin="round"/>
<path d="M8 12.5V9" stroke="#0F172A" stroke-width="1.33" stroke-linecap="round" stroke-linejoin="round"/>
<path d="M6 7L8 9L10 7" stroke="#0F172A" stroke-width="1.33" stroke-linecap="round" stroke-linejoin="round"/>
<path d="M4.91883 10.4375C4.32443 9.97317 3.84299 9.38018 3.51067 8.70308C3.17834 8.02598 3.00377 7.28238 3.00008 6.52813C2.98508 3.81813 5.17008 1.5625 7.87945 1.5C8.92946 1.47457 9.96081 1.78044 10.8272 2.37421C11.6935 2.96799 12.3509 3.81951 12.7061 4.80797C13.0612 5.79643 13.096 6.87162 12.8056 7.88099C12.5152 8.89036 11.9143 9.78265 11.0882 10.4313C10.906 10.5725 10.7583 10.7535 10.6564 10.9603C10.5545 11.1671 10.5011 11.3944 10.5001 11.625V12C10.5001 12.1326 10.4474 12.2598 10.3536 12.3536C10.2599 12.4473 10.1327 12.5 10.0001 12.5H6.00008C5.86747 12.5 5.74029 12.4473 5.64652 12.3536C5.55276 12.2598 5.50008 12.1326 5.50008 12V11.625C5.49984 11.3959 5.44736 11.1699 5.34664 10.9641C5.24592 10.7583 5.09961 10.5782 4.91883 10.4375Z" stroke="#0F172A" stroke-width="1.33" stroke-linecap="round" stroke-linejoin="round"/>
</svg>
