<svg role="img" aria-label="GitHub" xmlns="http://www.w3.org/2000/svg"
     viewBox="0 0 24 24" width="24" height="24" fill="currentColor">
  <title>GitHub</title>
  <path d="M12 0C5.37 0 0 5.37 0 12c0 5.3 3.44 9.79 8.2 11.39.6.11.82-.26.82-.58 0-.29-.01-1.05-.02-2.06-3.34.73-4.04-1.61-4.04-1.61-.54-1.36-1.33-1.72-1.33-1.72-1.09-.75.08-.74.08-.74 1.2.09 1.83 1.24 1.83 1.24 1.07 1.83 2.8 1.3 3.48.99.11-.78.42-1.3.76-1.6-2.66-.3-5.46-1.33-5.46-5.91 0-1.31.47-2.38 1.24-3.22-.12-.3-.54-1.52.12-3.17 0 0 1.01-.32 3.3 1.23.96-.27 1.98-.4 3-.4s2.04.13 3 .4c2.29-1.55 3.3-1.23 3.3-1.23.66 1.65.24 2.87.12 3.17.77.84 1.24 1.91 1.24 3.22 0 4.59-2.8 5.61-5.47 5.91.43.37.81 1.1.81 2.22 0 1.6-.01 2.89-.01 3.28 0 .32.22.69.83.57C20.57 21.79 24 17.3 24 12 24 5.37 18.63 0 12 0z"/>
</svg>
