<svg width="600" height="99" viewBox="0 0 600 99" fill="none" xmlns="http://www.w3.org/2000/svg">
<path d="M19.0873 30.1869C25.2106 30.1869 30.1745 25.2202 30.1745 19.0934C30.1745 12.9667 25.2106 8 19.0873 8C12.9639 8 8 12.9667 8 19.0934C8 25.2202 12.9639 30.1869 19.0873 30.1869Z" fill="#065F46"/>
<path d="M41.1439 52.2557C47.2672 52.2557 52.2312 47.289 52.2312 41.1623C52.2312 35.0355 47.2672 30.0688 41.1439 30.0688C35.0206 30.0688 30.0566 35.0355 30.0566 41.1623C30.0566 47.289 35.0206 52.2557 41.1439 52.2557Z" fill="#065F46"/>
<path d="M19.0873 74.4437C25.2106 74.4437 30.1745 69.477 30.1745 63.3503C30.1745 57.2235 25.2106 52.2568 19.0873 52.2568C12.9639 52.2568 8 57.2235 8 63.3503C8 69.477 12.9639 74.4437 19.0873 74.4437Z" fill="#065F46"/>
<path d="M74.4058 41.1621V52.2555H85.493C79.3596 52.2555 74.4058 47.2989 74.4058 41.1621Z" fill="#065F46"/>
<path d="M85.3749 52.2568H74.2876V63.3503C74.2876 57.2135 79.2415 52.2568 85.3749 52.2568Z" fill="#065F46"/>
<path d="M85.375 52.2555H96.4623V41.1621C96.4623 47.2989 91.5084 52.2555 85.375 52.2555Z" fill="#065F46"/>
<path d="M85.375 52.2568C91.5084 52.2568 96.4623 57.2135 96.4623 63.3503V52.2568H85.375Z" fill="#065F46"/>
<path d="M30.1746 19.0938V30.1872H41.2618C35.1284 30.1872 30.1746 25.2305 30.1746 19.0938Z" fill="#065F46"/>
<path d="M19.0872 30.0686H30.1744V18.9751C30.1744 25.1119 25.2205 30.0686 19.0872 30.0686Z" fill="#065F46"/>
<path d="M41.1437 30.0688H30.0564V41.1623C30.0564 35.0255 35.0103 30.0688 41.1437 30.0688Z" fill="#065F46"/>
<path d="M19.0872 30.0688C25.2205 30.0688 30.1744 35.0255 30.1744 41.1623V30.0688H19.0872Z" fill="#065F46"/>
<path d="M63.3185 30.1869C69.4418 30.1869 74.4057 25.2202 74.4057 19.0934C74.4057 12.9667 69.4418 8 63.3185 8C57.1951 8 52.2312 12.9667 52.2312 19.0934C52.2312 25.2202 57.1951 30.1869 63.3185 30.1869Z" fill="#065F46"/>
<path d="M85.3749 52.2557C91.4982 52.2557 96.4621 47.289 96.4621 41.1623C96.4621 35.0355 91.4982 30.0688 85.3749 30.0688C79.2515 30.0688 74.2876 35.0355 74.2876 41.1623C74.2876 47.289 79.2515 52.2557 85.3749 52.2557Z" fill="#065F46"/>
<path d="M85.3749 74.4437C91.4982 74.4437 96.4621 69.477 96.4621 63.3503C96.4621 57.2235 91.4982 52.2568 85.3749 52.2568C79.2515 52.2568 74.2876 57.2235 74.2876 63.3503C74.2876 69.477 79.2515 74.4437 85.3749 74.4437Z" fill="#065F46"/>
<path d="M74.4058 19.0938V30.1872H85.493C79.3596 30.1872 74.4058 25.2305 74.4058 19.0938Z" fill="#065F46"/>
<path d="M63.3184 30.0686H74.4056V18.9751C74.4056 25.1119 69.4517 30.0686 63.3184 30.0686Z" fill="#065F46"/>
<path d="M85.3749 30.0688H74.2876V41.1623C74.2876 35.0255 79.2415 30.0688 85.3749 30.0688Z" fill="#065F46"/>
<path d="M63.3184 30.0688C69.4517 30.0688 74.4056 35.0255 74.4056 41.1623V30.0688H63.3184Z" fill="#065F46"/>
<path d="M125.478 72.9096C125.006 72.5556 124.888 71.9655 124.888 71.3754V12.7218C124.888 12.0137 125.124 11.5416 125.478 11.0696C125.95 10.5975 126.422 10.4795 127.129 10.4795H134.206C135.504 10.4795 136.329 11.0696 136.919 12.2497L154.258 44.7039L171.832 12.2497C172.422 11.0696 173.366 10.4795 174.545 10.4795H181.622C182.33 10.4795 182.801 10.7155 183.273 11.0696C183.745 11.5416 183.863 12.0137 183.863 12.7218V71.3754C183.863 72.0835 183.627 72.5556 183.273 72.9096C182.801 73.2637 182.33 73.4997 181.622 73.4997H174.073C173.483 73.4997 173.012 73.2637 172.54 72.9096C172.068 72.4375 171.95 71.9655 171.95 71.3754V32.3123L159.33 56.3875C158.504 57.6856 157.56 58.3937 156.263 58.3937H152.606C151.309 58.3937 150.365 57.6856 149.54 56.3875L136.919 32.3123V71.3754C136.919 71.9655 136.683 72.4375 136.329 72.9096C135.975 73.3817 135.386 73.4997 134.796 73.4997H127.247C126.539 73.4997 126.068 73.2637 125.596 72.9096H125.478Z" fill="#065F46"/>
<path d="M198.843 68.8956C194.95 65.2372 192.945 60.2805 192.591 54.0257V50.0132V46.0007C192.945 39.7458 194.95 34.7892 198.843 31.1307C202.735 27.4722 208.161 25.584 215.12 25.584C222.079 25.584 227.386 27.4722 231.397 31.1307C235.289 34.7892 237.412 39.7458 237.648 46.0007C237.648 46.7088 237.648 48.0069 237.648 50.0132C237.648 52.0194 237.648 53.3176 237.648 54.0257C237.294 60.2805 235.289 65.3552 231.397 68.8956C227.504 72.5541 222.079 74.3244 215.12 74.3244C208.161 74.3244 202.617 72.5541 198.843 68.8956ZM222.551 62.4048C224.32 60.3985 225.263 57.4481 225.381 53.5536C225.381 52.9636 225.381 51.7834 225.381 50.0132C225.381 48.2429 225.381 47.0628 225.381 46.4727C225.145 42.5782 224.202 39.6278 222.551 37.6216C220.781 35.6153 218.304 34.5532 215.12 34.5532C211.935 34.5532 209.458 35.6153 207.689 37.6216C205.92 39.6278 204.976 42.5782 204.858 46.4727V50.0132V53.5536C205.094 57.4481 206.038 60.3985 207.689 62.4048C209.458 64.4111 211.935 65.4732 215.12 65.4732C218.304 65.4732 220.781 64.4111 222.551 62.4048Z" fill="#065F46"/>
<path d="M246.022 72.7903C245.551 72.3183 245.433 71.8462 245.433 71.2561V28.7706C245.433 28.1805 245.669 27.5904 246.022 27.2364C246.494 26.7643 246.966 26.5283 247.556 26.5283H254.869C255.576 26.5283 256.048 26.7644 256.52 27.1184C256.992 27.5905 257.11 28.0625 257.11 28.7706V32.4291C258.525 30.5408 260.412 29.0066 262.535 28.0625C264.776 27.0004 267.253 26.5283 270.084 26.5283H273.741C274.448 26.5283 274.92 26.7644 275.274 27.1184C275.628 27.4724 275.864 28.0625 275.864 28.6526V35.1434C275.864 35.7335 275.628 36.2056 275.274 36.6776C274.92 37.1497 274.33 37.2677 273.741 37.2677H266.664C263.833 37.2677 261.592 38.0938 259.94 39.746C258.289 41.3982 257.463 43.6405 257.463 46.4729V71.2561C257.463 71.8462 257.228 72.3183 256.874 72.7903C256.402 73.2624 255.93 73.3804 255.222 73.3804H247.438C246.848 73.3804 246.376 73.1444 245.904 72.7903H246.022Z" fill="#065F46"/>
<path d="M283.767 90.0215C283.295 89.6675 283.177 89.0774 283.177 88.4873V28.7715C283.177 28.0634 283.413 27.5914 283.767 27.2373C284.238 26.8833 284.71 26.6472 285.3 26.6472H292.377C293.085 26.6472 293.556 26.8833 293.91 27.2373C294.264 27.5914 294.5 28.1815 294.5 28.7715V32.43C297.92 27.9454 302.638 25.7031 308.89 25.7031C315.141 25.7031 319.623 27.5914 322.808 31.4859C326.11 35.2624 327.762 40.455 327.998 46.9459C327.998 47.654 327.998 48.7161 327.998 50.1323C327.998 51.5485 327.998 52.6106 327.998 53.4367C327.762 59.6915 325.992 64.8842 322.808 68.7787C319.623 72.6732 314.905 74.5615 308.89 74.5615C302.874 74.5615 298.156 72.4372 294.972 68.1887V88.6053C294.972 89.3134 294.736 89.7855 294.382 90.1395C294.028 90.4936 293.438 90.7296 292.849 90.7296H285.182C284.592 90.7296 284.12 90.4936 283.649 90.1395L283.767 90.0215ZM316.085 52.7286C316.085 52.1386 316.085 51.1945 316.085 50.0143C316.085 48.8341 316.085 47.89 316.085 47.2999C315.613 39.2749 312.192 35.2624 305.705 35.2624C299.218 35.2624 299.69 36.3245 297.92 38.5668C296.269 40.8091 295.326 43.5234 295.09 46.8279V50.2503V53.7908C295.208 56.7412 296.151 59.3375 297.92 61.4618C299.69 63.586 302.285 64.6482 305.587 64.6482C312.074 64.6482 315.495 60.6357 315.967 52.6106L316.085 52.7286Z" fill="#065F46"/>
<path d="M338.023 72.7898C337.551 72.3177 337.433 71.8456 337.433 71.2556V11.5398C337.433 10.8317 337.669 10.3597 338.023 10.0056C338.495 9.65156 338.967 9.41553 339.556 9.41553H347.577C348.285 9.41553 348.757 9.65156 349.11 10.0056C349.464 10.3597 349.7 10.9497 349.7 11.5398V32.0745C353.357 27.7079 358.192 25.5836 364.326 25.5836C370.459 25.5836 374.234 27.3538 377.536 31.0123C380.839 34.6708 382.49 39.6275 382.49 45.8823V71.2556C382.49 71.8456 382.254 72.3177 381.9 72.7898C381.547 73.2618 380.957 73.3798 380.367 73.3798H372.229C371.639 73.3798 371.167 73.1438 370.695 72.7898C370.223 72.3177 370.105 71.8456 370.105 71.2556V46.4723C370.105 42.9319 369.28 40.2175 367.511 38.2113C365.741 36.205 363.264 35.2609 360.08 35.2609C356.895 35.2609 354.418 36.205 352.531 38.2113C350.644 40.2175 349.7 42.9319 349.7 46.4723V71.2556C349.7 71.8456 349.464 72.3177 349.11 72.7898C348.757 73.2618 348.167 73.3798 347.577 73.3798H339.556C338.967 73.3798 338.495 73.1438 338.023 72.7898Z" fill="#065F46"/>
<path d="M394.521 72.9096C394.049 72.5556 393.931 71.9655 393.931 71.3754V12.7218C393.931 12.0137 394.167 11.5416 394.521 11.0696C394.993 10.5975 395.464 10.4795 396.172 10.4795H403.249C404.547 10.4795 405.372 11.0696 405.962 12.2497L423.301 44.7039L440.875 12.2497C441.465 11.0696 442.408 10.4795 443.588 10.4795H450.665C451.373 10.4795 451.844 10.7155 452.316 11.0696C452.788 11.5416 452.906 12.0137 452.906 12.7218V71.3754C452.906 72.0835 452.67 72.5556 452.316 72.9096C451.844 73.2637 451.373 73.4997 450.665 73.4997H443.116C442.526 73.4997 442.055 73.2637 441.583 72.9096C441.111 72.4375 440.993 71.9655 440.993 71.3754V32.3123L428.372 56.3875C427.547 57.6856 426.603 58.3937 425.306 58.3937H421.649C420.352 58.3937 419.408 57.6856 418.583 56.3875L405.962 32.3123V71.3754C405.962 71.9655 405.726 72.4375 405.372 72.9096C405.018 73.3817 404.429 73.4997 403.839 73.4997H396.29C395.582 73.4997 395.111 73.2637 394.639 72.9096H394.521Z" fill="#065F46"/>
<path d="M466.352 18.1493C465.881 17.6773 465.763 17.2052 465.763 16.6151V10.1243C465.763 9.53419 465.999 9.06214 466.352 8.59008C466.824 8.11802 467.296 8 467.886 8H476.142C476.732 8 477.322 8.23603 477.676 8.59008C478.147 9.06214 478.383 9.53419 478.383 10.1243V16.6151C478.383 17.2052 478.147 17.6773 477.794 18.1493C477.322 18.6214 476.85 18.7394 476.142 18.7394H467.886C467.296 18.7394 466.824 18.5034 466.352 18.1493ZM466.706 72.7904C466.234 72.3184 466.117 71.8463 466.117 71.2562V28.6527C466.117 28.0626 466.352 27.5906 466.706 27.1185C467.178 26.6464 467.65 26.5284 468.24 26.5284H475.67C476.378 26.5284 476.85 26.7645 477.204 27.1185C477.558 27.4725 477.794 28.0626 477.794 28.6527V71.2562C477.794 71.8463 477.558 72.3184 477.204 72.7904C476.85 73.2625 476.26 73.3805 475.67 73.3805H468.24C467.65 73.3805 467.178 73.1445 466.706 72.7904Z" fill="#065F46"/>
<path d="M492.066 72.7901C491.594 72.3181 491.476 71.846 491.476 71.2559V28.6524C491.476 28.0623 491.712 27.5903 492.066 27.1182C492.537 26.6461 493.009 26.5281 493.599 26.5281H501.03C501.619 26.5281 502.091 26.7642 502.563 27.1182C503.035 27.5903 503.153 28.0623 503.153 28.6524V32.3109C506.691 27.8263 511.763 25.584 518.25 25.584C524.738 25.584 528.158 27.3542 531.461 31.0127C534.763 34.6712 536.297 39.6278 536.297 45.8826V71.2559C536.297 71.846 536.061 72.3181 535.707 72.7901C535.353 73.2622 534.763 73.3802 534.174 73.3802H526.271C525.681 73.3802 525.209 73.1442 524.738 72.7901C524.266 72.3181 524.148 71.846 524.148 71.2559V46.4727C524.148 42.9323 523.322 40.2179 521.553 38.2116C519.784 36.2054 517.307 35.2613 514.122 35.2613C510.938 35.2613 508.461 36.2054 506.573 38.2116C504.686 40.2179 503.861 42.9323 503.861 46.4727V71.2559C503.861 71.846 503.625 72.3181 503.271 72.7901C502.917 73.2622 502.327 73.3802 501.737 73.3802H493.835C493.245 73.3802 492.773 73.1442 492.301 72.7901H492.066Z" fill="#065F46"/>
<path d="M551.276 68.5419C547.974 64.6474 546.322 59.4547 546.086 52.9639V50.0135V47.1811C546.322 40.9263 547.974 35.7336 551.276 31.7211C554.579 27.7086 559.179 25.8203 565.312 25.8203C571.446 25.8203 575.81 27.8266 579.23 31.7211V11.6585C579.23 10.9504 579.466 10.4783 579.82 10.1243C580.292 9.77021 580.764 9.53418 581.353 9.53418H589.02C589.728 9.53418 590.2 9.77021 590.553 10.1243C590.907 10.4783 591.143 11.0684 591.143 11.6585V71.3743C591.143 71.9643 590.907 72.4364 590.553 72.9084C590.2 73.3805 589.61 73.4985 589.02 73.4985H581.943C581.353 73.4985 580.882 73.2625 580.41 72.9084C579.938 72.4364 579.82 71.9643 579.82 71.3743V68.0698C576.399 72.3184 571.564 74.4426 565.43 74.4426C559.297 74.4426 554.697 72.4364 551.512 68.5419H551.276ZM576.4 61.343C578.051 59.1007 578.994 56.3863 579.23 53.0819C579.23 52.3738 579.23 51.1936 579.23 49.5414C579.23 47.8892 579.23 46.827 579.23 46.1189C579.112 43.1686 578.169 40.5722 576.4 38.4479C574.63 36.3237 572.035 35.2615 568.733 35.2615C562.246 35.2615 558.825 39.2741 558.353 47.2991V50.0135V52.7278C558.825 60.7529 562.246 64.7654 568.733 64.7654C575.22 64.7654 574.748 63.7032 576.517 61.4609L576.4 61.343Z" fill="#065F46"/>
</svg>
