<svg width="105" height="80" viewBox="0 0 105 80" fill="none" xmlns="http://www.w3.org/2000/svg">
<path d="M20.5751 29.3744C26.4732 29.3744 31.2546 24.5896 31.2546 18.6872C31.2546 12.7848 26.4732 8 20.5751 8C14.6769 8 9.89551 12.7848 9.89551 18.6872C9.89551 24.5896 14.6769 29.3744 20.5751 29.3744Z" fill="#065F46"/>
<path d="M41.8207 50.6356C47.7188 50.6356 52.5002 45.8508 52.5002 39.9484C52.5002 34.046 47.7188 29.2612 41.8207 29.2612C35.9225 29.2612 31.1411 34.046 31.1411 39.9484C31.1411 45.8508 35.9225 50.6356 41.8207 50.6356Z" fill="#065F46"/>
<path d="M20.5751 71.9999C26.4732 71.9999 31.2546 67.2151 31.2546 61.3127C31.2546 55.4103 26.4732 50.6255 20.5751 50.6255C14.6769 50.6255 9.89551 55.4103 9.89551 61.3127C9.89551 67.2151 14.6769 71.9999 20.5751 71.9999Z" fill="#065F46"/>
<path d="M73.8586 39.9517V50.6389H84.5382C78.6304 50.6389 73.8586 45.8637 73.8586 39.9517Z" fill="#065F46"/>
<path d="M84.4244 50.6255H73.7449V61.3127C73.7449 55.4006 78.5166 50.6255 84.4244 50.6255Z" fill="#065F46"/>
<path d="M84.4246 50.6389H95.1041V39.9517C95.1041 45.8637 90.3324 50.6389 84.4246 50.6389Z" fill="#065F46"/>
<path d="M84.425 50.6255C90.3329 50.6255 95.1046 55.4006 95.1046 61.3127V50.6255H84.425Z" fill="#065F46"/>
<path d="M31.2539 18.6885V29.3757H41.9335C36.0256 29.3757 31.2539 24.6005 31.2539 18.6885Z" fill="#065F46"/>
<path d="M20.5747 29.2556H31.2543V18.5684C31.2543 24.4804 26.4826 29.2556 20.5747 29.2556Z" fill="#065F46"/>
<path d="M41.8202 29.2612H31.1406V39.9484C31.1406 34.0364 35.9123 29.2612 41.8202 29.2612Z" fill="#065F46"/>
<path d="M20.5747 29.2612C26.4826 29.2612 31.2543 34.0364 31.2543 39.9484V29.2612H20.5747Z" fill="#065F46"/>
<path d="M63.1796 29.3744C69.0777 29.3744 73.8591 24.5896 73.8591 18.6872C73.8591 12.7848 69.0777 8 63.1796 8C57.2814 8 52.5 12.7848 52.5 18.6872C52.5 24.5896 57.2814 29.3744 63.1796 29.3744Z" fill="#065F46"/>
<path d="M84.4244 50.6356C90.3226 50.6356 95.104 45.8508 95.104 39.9484C95.104 34.046 90.3226 29.2612 84.4244 29.2612C78.5263 29.2612 73.7449 34.046 73.7449 39.9484C73.7449 45.8508 78.5263 50.6356 84.4244 50.6356Z" fill="#065F46"/>
<path d="M84.4244 71.9999C90.3226 71.9999 95.104 67.2151 95.104 61.3127C95.104 55.4103 90.3226 50.6255 84.4244 50.6255C78.5263 50.6255 73.7449 55.4103 73.7449 61.3127C73.7449 67.2151 78.5263 71.9999 84.4244 71.9999Z" fill="#065F46"/>
<path d="M73.8589 18.6885V29.3757H84.5384C78.6306 29.3757 73.8589 24.6005 73.8589 18.6885Z" fill="#065F46"/>
<path d="M63.1797 29.2556H73.8593V18.5684C73.8593 24.4804 69.0875 29.2556 63.1797 29.2556Z" fill="#065F46"/>
<path d="M84.4247 29.2612H73.7451V39.9484C73.7451 34.0364 78.5168 29.2612 84.4247 29.2612Z" fill="#065F46"/>
<path d="M63.1797 29.2612C69.0875 29.2612 73.8593 34.0364 73.8593 39.9484V29.2612H63.1797Z" fill="#065F46"/>
</svg>
