<svg width="50" height="4" viewBox="0 14.16 50 0.8" fill="none" xmlns="http://www.w3.org/2000/svg">
<path d="M0.799999 14.5602C0.799999 14.7811 0.620913 14.9602 0.4 14.9602C0.179086 14.9602 0 14.7811 0 14.5602C0 14.3392 0.179086 14.1602 0.4 14.1602C0.620913 14.1602 0.799999 14.3392 0.799999 14.5602ZM2.4 14.5602C2.4 14.7811 2.22091 14.9602 2 14.9602C1.77908 14.9602 1.6 14.7811 1.6 14.5602C1.6 14.3392 1.77908 14.1602 2 14.1602C2.22091 14.1602 2.4 14.3392 2.4 14.5602ZM4 14.5602C4 14.7811 3.82091 14.9602 3.6 14.9602C3.37908 14.9602 3.2 14.7811 3.2 14.5602C3.2 14.3392 3.37908 14.1602 3.6 14.1602C3.82091 14.1602 4 14.3392 4 14.5602ZM5.59999 14.5602C5.59999 14.7811 5.42091 14.9602 5.2 14.9602C4.97908 14.9602 4.8 14.7811 4.8 14.5602C4.8 14.3392 4.97908 14.1602 5.2 14.1602C5.42091 14.1602 5.59999 14.3392 5.59999 14.5602ZM7.19999 14.5602C7.19999 14.7811 7.02091 14.9602 6.79999 14.9602C6.57908 14.9602 6.39999 14.7811 6.39999 14.5602C6.39999 14.3392 6.57908 14.1602 6.79999 14.1602C7.02091 14.1602 7.19999 14.3392 7.19999 14.5602ZM8.79999 14.5602C8.79999 14.7811 8.62091 14.9602 8.39999 14.9602C8.17908 14.9602 7.99999 14.7811 7.99999 14.5602C7.99999 14.3392 8.17908 14.1602 8.39999 14.1602C8.62091 14.1602 8.79999 14.3392 8.79999 14.5602ZM10.4 14.5602C10.4 14.7811 10.2209 14.9602 9.99999 14.9602C9.77908 14.9602 9.59999 14.7811 9.59999 14.5602C9.59999 14.3392 9.77908 14.1602 9.99999 14.1602C10.2209 14.1602 10.4 14.3392 10.4 14.5602ZM12 14.5602C12 14.7811 11.8209 14.9602 11.6 14.9602C11.3791 14.9602 11.2 14.7811 11.2 14.5602C11.2 14.3392 11.3791 14.1602 11.6 14.1602C11.8209 14.1602 12 14.3392 12 14.5602ZM13.6 14.5602C13.6 14.7811 13.4209 14.9602 13.2 14.9602C12.9791 14.9602 12.8 14.7811 12.8 14.5602C12.8 14.3392 12.9791 14.1602 13.2 14.1602C13.4209 14.1602 13.6 14.3392 13.6 14.5602ZM15.2 14.5602C15.2 14.7811 15.0209 14.9602 14.8 14.9602C14.5791 14.9602 14.4 14.7811 14.4 14.5602C14.4 14.3392 14.5791 14.1602 14.8 14.1602C15.0209 14.1602 15.2 14.3392 15.2 14.5602ZM16.8 14.5602C16.8 14.7811 16.6209 14.9602 16.4 14.9602C16.1791 14.9602 16 14.7811 16 14.5602C16 14.3392 16.1791 14.1602 16.4 14.1602C16.6209 14.1602 16.8 14.3392 16.8 14.5602ZM18.4 14.5602C18.4 14.7811 18.2209 14.9602 18 14.9602C17.7791 14.9602 17.6 14.7811 17.6 14.5602C17.6 14.3392 17.7791 14.1602 18 14.1602C18.2209 14.1602 18.4 14.3392 18.4 14.5602ZM20 14.5602C20 14.7811 19.8209 14.9602 19.6 14.9602C19.3791 14.9602 19.2 14.7811 19.2 14.5602C19.2 14.3392 19.3791 14.1602 19.6 14.1602C19.8209 14.1602 20 14.3392 20 14.5602ZM21.6 14.5602C21.6 14.7811 21.4209 14.9602 21.2 14.9602C20.9791 14.9602 20.8 14.7811 20.8 14.5602C20.8 14.3392 20.9791 14.1602 21.2 14.1602C21.4209 14.1602 21.6 14.3392 21.6 14.5602ZM23.2 14.5602C23.2 14.7811 23.0209 14.9602 22.8 14.9602C22.5791 14.9602 22.4 14.7811 22.4 14.5602C22.4 14.3392 22.5791 14.1602 22.8 14.1602C23.0209 14.1602 23.2 14.3392 23.2 14.5602ZM24.8 14.5602C24.8 14.7811 24.6209 14.9602 24.4 14.9602C24.1791 14.9602 24 14.7811 24 14.5602C24 14.3392 24.1791 14.1602 24.4 14.1602C24.6209 14.1602 24.8 14.3392 24.8 14.5602ZM26.4 14.5602C26.4 14.7811 26.2209 14.9602 26 14.9602C25.7791 14.9602 25.6 14.7811 25.6 14.5602C25.6 14.3392 25.7791 14.1602 26 14.1602C26.2209 14.1602 26.4 14.3392 26.4 14.5602ZM28 14.5602C28 14.7811 27.8209 14.9602 27.6 14.9602C27.3791 14.9602 27.2 14.7811 27.2 14.5602C27.2 14.3392 27.3791 14.1602 27.6 14.1602C27.8209 14.1602 28 14.3392 28 14.5602ZM29.6 14.5602C29.6 14.7811 29.4209 14.9602 29.2 14.9602C28.9791 14.9602 28.8 14.7811 28.8 14.5602C28.8 14.3392 28.9791 14.1602 29.2 14.1602C29.4209 14.1602 29.6 14.3392 29.6 14.5602ZM31.2 14.5602C31.2 14.7811 31.0209 14.9602 30.8 14.9602C30.5791 14.9602 30.4 14.7811 30.4 14.5602C30.4 14.3392 30.5791 14.1602 30.8 14.1602C31.0209 14.1602 31.2 14.3392 31.2 14.5602ZM32.8 14.5602C32.8 14.7811 32.6209 14.9602 32.4 14.9602C32.1791 14.9602 32 14.7811 32 14.5602C32 14.3392 32.1791 14.1602 32.4 14.1602C32.6209 14.1602 32.8 14.3392 32.8 14.5602ZM34.4 14.5602C34.4 14.7811 34.2209 14.9602 34 14.9602C33.7791 14.9602 33.6 14.7811 33.6 14.5602C33.6 14.3392 33.7791 14.1602 34 14.1602C34.2209 14.1602 34.4 14.3392 34.4 14.5602ZM36 14.5602C36 14.7811 35.8209 14.9602 35.6 14.9602C35.3791 14.9602 35.2 14.7811 35.2 14.5602C35.2 14.3392 35.3791 14.1602 35.6 14.1602C35.8209 14.1602 36 14.3392 36 14.5602ZM37.6 14.5602C37.6 14.7811 37.4209 14.9602 37.2 14.9602C36.9791 14.9602 36.8 14.7811 36.8 14.5602C36.8 14.3392 36.9791 14.1602 37.2 14.1602C37.4209 14.1602 37.6 14.3392 37.6 14.5602ZM39.2 14.5602C39.2 14.7811 39.0209 14.9602 38.8 14.9602C38.579 14.9602 38.4 14.7811 38.4 14.5602C38.4 14.3392 38.579 14.1602 38.8 14.1602C39.0209 14.1602 39.2 14.3392 39.2 14.5602ZM40.8 14.5602C40.8 14.7811 40.6209 14.9602 40.4 14.9602C40.179 14.9602 40 14.7811 40 14.5602C40 14.3392 40.179 14.1602 40.4 14.1602C40.6209 14.1602 40.8 14.3392 40.8 14.5602ZM42.4 14.5602C42.4 14.7811 42.2209 14.9602 42 14.9602C41.779 14.9602 41.6 14.7811 41.6 14.5602C41.6 14.3392 41.779 14.1602 42 14.1602C42.2209 14.1602 42.4 14.3392 42.4 14.5602ZM44 14.5602C44 14.7811 43.8209 14.9602 43.6 14.9602C43.379 14.9602 43.2 14.7811 43.2 14.5602C43.2 14.3392 43.379 14.1602 43.6 14.1602C43.8209 14.1602 44 14.3392 44 14.5602ZM45.6 14.5602C45.6 14.7811 45.4209 14.9602 45.2 14.9602C44.979 14.9602 44.8 14.7811 44.8 14.5602C44.8 14.3392 44.979 14.1602 45.2 14.1602C45.4209 14.1602 45.6 14.3392 45.6 14.5602ZM47.2 14.5602C47.2 14.7811 47.0209 14.9602 46.8 14.9602C46.579 14.9602 46.4 14.7811 46.4 14.5602C46.4 14.3392 46.579 14.1602 46.8 14.1602C47.0209 14.1602 47.2 14.3392 47.2 14.5602ZM48.8 14.5602C48.8 14.7811 48.6209 14.9602 48.4 14.9602C48.179 14.9602 48 14.7811 48 14.5602C48 14.3392 48.179 14.1602 48.4 14.1602C48.6209 14.1602 48.8 14.3392 48.8 14.5602Z" fill="#64748B"/>
</svg>
