<svg width="48" height="48" viewBox="0 0 48 48" fill="none" xmlns="http://www.w3.org/2000/svg">
<rect width="48" height="48" rx="24" ry="24" fill="#124442"/>
<g transform="translate(24, 24) scale(0.85) translate(-24, -24)">
<path d="M10.7196 18.261C13.3466 18.261 15.4715 20.3907 15.4715 23.0122C15.4715 25.6338 17.6014 27.7635 20.2233 27.7635C22.8452 27.7635 24.9752 25.6338 24.9752 23.0122C24.9752 20.3907 22.8452 18.261 20.2233 18.261C17.6014 18.261 15.4715 16.1313 15.4715 13.5097C15.4766 10.8831 13.3466 8.75342 10.7196 8.75342C8.09267 8.75342 5.96777 10.8831 5.96777 13.5047C5.96777 16.1262 8.09774 18.2559 10.7196 18.2559" fill="#D6F39D"/>
<path d="M14.0811 35.8867C15.9369 34.0311 15.9369 31.0226 14.0811 29.167C12.2252 27.3114 9.21623 27.3114 7.36035 29.167C5.50448 31.0226 5.50448 34.0311 7.36035 35.8867C9.21623 37.7423 12.2252 37.7423 14.0811 35.8867Z" fill="#D6F39D"/>
<path d="M34.4959 13.5047C34.4959 10.878 32.3659 8.75342 29.744 8.75342C27.1222 8.75342 24.9922 10.8831 24.9922 13.5047C24.9922 16.1262 27.1222 18.2559 29.744 18.2559C32.3659 18.2559 34.4959 20.3856 34.4959 23.0072V32.5147C34.4959 35.1413 36.6259 37.266 39.2478 37.266C41.8696 37.266 43.9996 35.1363 43.9996 32.5147V23.0072C43.9996 20.3805 41.8696 18.2559 39.2478 18.2559C36.6259 18.2559 34.4959 16.1262 34.4959 13.5047Z" fill="#D6F39D"/>
</g>
</svg>
